<?xml version="1.0" standalone="no"?>
<!DOCTYPE svg PUBLIC "-//W3C//DTD SVG 20010904//EN"
 "http://www.w3.org/TR/2001/REC-SVG-20010904/DTD/svg10.dtd">
<svg version="1.0" xmlns="http://www.w3.org/2000/svg"
 width="200.000000pt" height="153.000000pt" viewBox="0 0 200.000000 153.000000"
 preserveAspectRatio="xMidYMid meet">

<g transform="translate(0.000000,153.000000) scale(0.100000,-0.100000)"
fill="#000000" stroke="#ffffff">
<path d="M910 1454 c-121 -21 -153 -28 -205 -46 -353 -121 -596 -434 -630
-813 -12 -138 21 -311 87 -458 l31 -67 807 0 807 0 36 78 c248 528 -63 1150
-643 1287 -66 15 -245 27 -290 19z m-121 -540 c30 -16 73 -50 95 -76 l41 -48
316 0 316 0 61 -64 c34 -35 62 -68 62 -72 0 -12 -143 -154 -154 -154 -6 0 -25
14 -43 32 l-33 32 -33 -32 c-18 -18 -38 -32 -43 -32 -6 0 -23 14 -39 30 -16
17 -33 30 -39 30 -5 0 -25 -14 -43 -32 l-33 -32 -38 37 -38 37 -49 -50 -49
-50 -68 0 c-37 0 -68 -4 -68 -8 0 -20 -90 -97 -140 -121 -44 -21 -70 -26 -130
-26 -99 1 -163 29 -229 101 -156 171 -91 439 126 520 25 9 66 13 118 11 66 -3
90 -8 134 -33z"/>
<path d="M474 710 c-28 -11 -54 -48 -54 -78 0 -32 52 -82 85 -82 35 0 75 41
75 79 0 43 -9 60 -41 76 -32 17 -36 17 -65 5z"/>
</g>
</svg>
